<?xml version="1.0" standalone="no"?>
<!DOCTYPE svg PUBLIC "-//W3C//DTD SVG 20010904//EN"
 "http://www.w3.org/TR/2001/REC-SVG-20010904/DTD/svg10.dtd">
<svg version="1.0" xmlns="http://www.w3.org/2000/svg"
 width="1437.000000pt" height="1437.000000pt" viewBox="0 0 1437.000000 1437.000000"
 preserveAspectRatio="xMidYMid meet">
<metadata>
Created by potrace 1.11, written by Peter Selinger 2001-2013
</metadata>
<g transform="translate(0.000000,1437.000000) scale(0.100000,-0.100000)"
fill="#000000" stroke="none">
<path d="M0 7185 l0 -7185 7185 0 7185 0 0 7185 0 7185 -7185 0 -7185 0 0
-7185z m11731 5905 c36 -20 23 -57 -48 -139 -111 -127 -149 -172 -619 -726
-247 -291 -526 -620 -620 -730 -313 -369 -344 -406 -344 -414 0 -5 35 -35 77
-67 310 -236 650 -582 904 -919 862 -1141 1172 -2602 853 -4020 -33 -149 -77
-301 -136 -474 -241 -708 -624 -1325 -1153 -1857 -196 -197 -213 -212 -420
-378 -477 -381 -965 -643 -1555 -835 -470 -152 -929 -223 -1465 -225 -383 -1
-631 23 -985 94 -436 88 -830 225 -1240 432 -107 54 -199 97 -206 94 -7 -3
-439 -346 -961 -763 -521 -417 -990 -791 -1041 -832 -85 -67 -95 -73 -118 -63
-47 22 -33 50 134 249 87 103 306 366 488 583 181 217 456 545 609 729 154
183 302 360 329 393 49 59 49 59 27 74 -120 84 -393 328 -547 487 -653 677
-1090 1505 -1274 2417 -173 855 -114 1744 168 2560 242 700 627 1315 1152
1841 304 305 594 533 949 746 642 384 1311 600 2096 675 297 28 798 11 1135
-38 549 -80 1202 -304 1636 -559 l30 -18 585 469 c321 257 710 570 865 694
625 502 661 530 672 530 2 0 12 -5 23 -10z"/>
<path d="M6895 11520 c-1254 -88 -2399 -705 -3172 -1710 -595 -775 -919 -1773
-889 -2745 34 -1121 452 -2117 1231 -2934 129 -135 493 -450 520 -451 6 0 50
48 100 108 49 59 142 170 206 247 65 77 191 228 281 335 89 107 208 249 263
315 208 248 225 268 225 276 0 5 -340 9 -756 9 -550 0 -760 3 -770 11 -35 29
-18 48 326 369 91 85 197 184 235 221 39 36 153 143 255 239 102 95 219 205
260 245 41 39 156 147 255 240 99 93 214 200 255 240 41 39 149 140 240 225
424 398 830 780 880 827 l55 53 -945 0 c-520 0 -951 4 -959 9 -12 8 -20 57
-10 65 2 1 85 68 184 148 99 79 407 326 685 549 278 222 656 526 840 674 619
497 1602 1285 2032 1629 235 187 427 344 427 347 1 7 -222 108 -372 168 -338
135 -721 228 -1132 276 -160 19 -575 27 -750 15z"/>
<path d="M9604 10503 c-88 -102 -215 -252 -284 -333 -69 -80 -233 -274 -365
-430 -132 -155 -255 -299 -272 -319 -18 -20 -33 -40 -33 -45 0 -6 313 -7 787
-3 725 7 788 6 805 -9 10 -10 18 -25 18 -34 0 -9 -46 -61 -102 -115 -57 -55
-173 -167 -258 -249 -85 -83 -218 -211 -295 -285 -77 -75 -203 -197 -280 -271
-77 -75 -270 -262 -430 -415 -159 -153 -355 -342 -435 -419 -243 -237 -710
-688 -795 -768 l-80 -76 55 -5 c30 -3 222 -11 425 -16 757 -22 1261 -42 1283
-51 14 -6 22 -18 22 -34 0 -19 -68 -78 -367 -317 -203 -162 -1131 -903 -2063
-1648 -932 -744 -1701 -1359 -1709 -1367 -12 -11 3 -21 95 -64 453 -214 927
-344 1464 -402 148 -15 652 -15 800 0 836 90 1553 365 2200 846 588 437 1093
1063 1376 1708 474 1079 508 2253 99 3333 -289 761 -790 1432 -1441 1928 l-62
47 -158 -187z"/>
</g>
</svg>
